<?xml version="1.0" standalone="no"?><!DOCTYPE svg PUBLIC "-//W3C//DTD SVG 1.1//EN" "http://www.w3.org/Graphics/SVG/1.1/DTD/svg11.dtd"><svg t="1580463099975" class="icon" viewBox="0 0 1024 1024" version="1.1" xmlns="http://www.w3.org/2000/svg" p-id="4387" xmlns:xlink="http://www.w3.org/1999/xlink" width="200" height="200"><defs><style type="text/css"></style></defs><path d="M156.611765 120.470588v160.466824a60.235294 60.235294 0 1 1-120.470589 0V60.235294a60.235294 60.235294 0 0 1 60.235295-60.235294h220.702117a60.235294 60.235294 0 1 1 0 120.470588H156.611765z m0 744.749177h160.466823a60.235294 60.235294 0 0 1 0 120.470588H96.376471a60.235294 60.235294 0 0 1-60.235295-60.235294v-220.762353a60.235294 60.235294 0 0 1 120.470589 0v160.527059zM901.360941 120.470588h-160.527059a60.235294 60.235294 0 0 1 0-120.470588h220.762353a60.235294 60.235294 0 0 1 60.235294 60.235294v220.702118a60.235294 60.235294 0 1 1-120.470588 0V120.470588z m0 584.282353a60.235294 60.235294 0 0 1 120.470588 0v220.702118a60.235294 60.235294 0 0 1-60.235294 60.235294h-220.762353a60.235294 60.235294 0 1 1 0-120.470588h160.527059v-160.527059z" p-id="4388" fill="rgb(223, 169, 54)"></path></svg>